<svg width="50" height="50" viewBox="0 0 50 50" fill="none" xmlns="http://www.w3.org/2000/svg">
<g clip-path="url(#clip0_62_74)">
<path d="M5.85354 5.91797C5.76096 3.25587 7.83479 0.801178 10.6383 0.801178H39.3649C42.1684 0.801178 44.2422 3.25587 44.1496 5.91797C44.0606 8.47501 44.1762 11.7875 45.0098 14.4883C45.8461 17.1977 47.2563 18.9098 49.566 19.1301V21.625C47.2563 21.8449 45.8461 23.5574 45.0098 26.2668C44.1762 28.9676 44.0606 32.2801 44.1496 34.8371C44.2422 37.4992 42.1684 39.9535 39.3649 39.9535H10.6383C7.83479 39.9535 5.76096 37.4988 5.85354 34.8371C5.9426 32.2801 5.82698 28.9676 4.99299 26.2668C4.15706 23.5578 2.74299 21.8453 0.433228 21.625V19.1301C2.74299 18.9102 4.15706 17.1977 4.99299 14.4883C5.82698 11.7875 5.94221 8.47501 5.85354 5.91797Z" fill="url(#paint0_linear_62_74)"/>
<g filter="url(#filter0_d_62_74)">
<path d="M26.2148 30.9274C30.7535 30.9274 33.4883 28.7051 33.4883 25.0398C33.4883 22.2691 31.5371 20.2633 28.6394 19.9457V19.8301C30.7683 19.484 32.4386 17.507 32.4386 15.2988C32.4386 12.1531 29.9551 10.1039 26.1703 10.1039H17.6547V30.9274H26.2148ZM20.9664 12.7449H25.3722C27.7668 12.7449 29.1273 13.8125 29.1273 15.7465C29.1273 17.8098 27.5453 18.9645 24.6773 18.9645H20.9664V12.7449ZM20.9664 28.2867V21.432H25.3426C28.4765 21.432 30.1027 22.5863 30.1027 24.8375C30.1027 27.0887 28.5211 28.2867 25.5347 28.2867H20.9664Z" fill="url(#paint1_linear_62_74)"/>
<path d="M26.2148 30.9274C30.7535 30.9274 33.4883 28.7051 33.4883 25.0398C33.4883 22.2691 31.5371 20.2633 28.6394 19.9457V19.8301C30.7683 19.484 32.4386 17.507 32.4386 15.2988C32.4386 12.1531 29.9551 10.1039 26.1703 10.1039H17.6547V30.9274H26.2148ZM20.9664 12.7449H25.3722C27.7668 12.7449 29.1273 13.8125 29.1273 15.7465C29.1273 17.8098 27.5453 18.9645 24.6773 18.9645H20.9664V12.7449ZM20.9664 28.2867V21.432H25.3426C28.4765 21.432 30.1027 22.5863 30.1027 24.8375C30.1027 27.0887 28.5211 28.2867 25.5347 28.2867H20.9664Z" fill="white"/>
</g>
<path d="M4.45239 47.4336V40.5047H6.42388C7.02271 40.5047 7.4981 40.6512 7.84927 40.9445C8.20044 41.2375 8.37583 41.6191 8.37583 42.0894C8.37583 42.4828 8.26958 42.8242 8.05708 43.1141C7.84419 43.4039 7.55122 43.6102 7.17739 43.7324V43.7519C7.64458 43.8066 8.01841 43.9836 8.29849 44.2832C8.57856 44.5797 8.7188 44.966 8.7188 45.443C8.7188 46.0355 8.5063 46.5156 8.0813 46.8828C7.65591 47.25 7.11958 47.4336 6.47192 47.4336H4.45239ZM5.26411 41.2391V43.4762H6.09536C6.53989 43.4762 6.8895 43.3699 7.1438 43.1574C7.3981 42.9414 7.52544 42.6383 7.52544 42.2488C7.52544 41.5758 7.08247 41.2391 6.19653 41.2391H5.26411ZM5.26411 44.2059V46.6992H6.36567C6.84224 46.6992 7.21138 46.5863 7.47231 46.3609C7.73638 46.1355 7.86841 45.8262 7.86841 45.4332C7.86841 44.6148 7.31099 44.2059 6.19653 44.2059H5.26411ZM12.0868 47.5508C11.3555 47.5508 10.7708 47.3203 10.3329 46.8598C9.8981 46.3961 9.68052 45.7824 9.68052 45.0187C9.68052 44.1879 9.90747 43.5387 10.3618 43.0715C10.8161 42.6047 11.4297 42.3711 12.2028 42.3711C12.9403 42.3711 13.5153 42.598 13.9278 43.0523C14.343 43.5066 14.5508 44.1363 14.5508 44.9414C14.5508 45.7309 14.327 46.3637 13.879 46.8406C13.4348 47.3141 12.8372 47.5508 12.0868 47.5508ZM12.1446 43.0379C11.6356 43.0379 11.2333 43.2117 10.9368 43.5598C10.6403 43.9043 10.4922 44.3809 10.4922 44.9898C10.4922 45.5762 10.6418 46.0387 10.9415 46.3766C11.2411 46.7152 11.6418 46.8844 12.1446 46.8844C12.6567 46.8844 13.05 46.7184 13.3239 46.3863C13.6008 46.0547 13.7391 45.5828 13.7391 44.9707C13.7391 44.3523 13.6008 43.8754 13.3239 43.5402C13.05 43.2055 12.6567 43.0379 12.1446 43.0379ZM17.8852 47.5508C17.154 47.5508 16.5692 47.3203 16.1313 46.8598C15.6965 46.3961 15.479 45.7824 15.479 45.0187C15.479 44.1879 15.7059 43.5387 16.1602 43.0715C16.6145 42.6047 17.2282 42.3711 18.0012 42.3711C18.7387 42.3711 19.3137 42.598 19.7262 43.0523C20.1418 43.5066 20.3497 44.1363 20.3497 44.9414C20.3497 45.7309 20.1258 46.3637 19.6778 46.8406C19.2333 47.3141 18.636 47.5508 17.8852 47.5508ZM17.943 43.0379C17.434 43.0379 17.0317 43.2117 16.7352 43.5598C16.4387 43.9043 16.2907 44.3809 16.2907 44.9898C16.2907 45.5762 16.4403 46.0387 16.7399 46.3766C17.0395 46.7152 17.4403 46.8844 17.943 46.8844C18.4551 46.8844 18.8485 46.7184 19.1223 46.3863C19.3993 46.0547 19.5375 45.5828 19.5375 44.9707C19.5375 44.3523 19.3993 43.8754 19.1223 43.5402C18.8485 43.2055 18.4555 43.0379 17.943 43.0379ZM23.9102 47.3867C23.7235 47.4898 23.477 47.5414 23.1708 47.5414C22.3043 47.5414 21.8711 47.0582 21.8711 46.0918V43.1637H21.0208V42.4871H21.8711V41.2793L22.6637 41.023V42.4871H23.9098V43.1637H22.6637V45.9516C22.6637 46.2832 22.72 46.5203 22.8329 46.6621C22.9454 46.8039 23.1321 46.8746 23.393 46.8746C23.5926 46.8746 23.7653 46.8199 23.9102 46.7105V47.3867ZM24.6688 47.2539V46.4035C25.1004 46.7223 25.5754 46.8816 26.0942 46.8816C26.7899 46.8816 27.1379 46.65 27.1379 46.1863C27.1379 46.0539 27.1075 45.943 27.0461 45.8527C26.9836 45.7546 26.9012 45.6707 26.8043 45.6062C26.6932 45.5294 26.5732 45.4662 26.4469 45.418C26.3014 45.3558 26.1547 45.2961 26.0071 45.2391C25.8097 45.1617 25.6162 45.0746 25.4274 44.9781C25.2761 44.8973 25.1363 44.7965 25.0118 44.6785C24.9043 44.5686 24.819 44.4391 24.7606 44.2969C24.7059 44.1551 24.6786 43.9894 24.6786 43.7992C24.6786 43.5676 24.7317 43.3629 24.8379 43.1855C24.9438 43.0056 25.0891 42.852 25.2629 42.7363C25.4472 42.6106 25.6516 42.5174 25.8672 42.4605C26.0973 42.3991 26.3345 42.3682 26.5727 42.3687C27.0012 42.3687 27.3844 42.443 27.7227 42.5914V43.3934C27.3586 43.1547 26.9399 43.0355 26.4661 43.0355C26.3176 43.0355 26.1844 43.0531 26.0653 43.0887C25.9547 43.1171 25.85 43.1647 25.7559 43.2293C25.6743 43.2877 25.6066 43.3635 25.5579 43.4512C25.5122 43.5375 25.489 43.634 25.4903 43.7316C25.4903 43.8602 25.5129 43.968 25.5579 44.0551C25.6059 44.1422 25.675 44.2195 25.7657 44.2871C25.8555 44.3547 25.9653 44.416 26.0942 44.4707C26.2231 44.5254 26.3696 44.5852 26.534 44.6496C26.7528 44.7332 26.9493 44.8203 27.1235 44.9105C27.285 44.9891 27.4346 45.0899 27.568 45.2102C27.6903 45.3195 27.7836 45.4469 27.8481 45.5918C27.9157 45.7367 27.9497 45.909 27.9497 46.1086C27.9497 46.3535 27.895 46.566 27.7856 46.7465C27.679 46.9269 27.5356 47.0766 27.3551 47.1957C27.1642 47.3194 26.9535 47.4094 26.7321 47.4617C26.49 47.5207 26.2417 47.5499 25.9926 47.5488C25.4836 47.5488 25.0426 47.4504 24.6688 47.2539ZM31.4618 47.3867C31.2754 47.4898 31.029 47.5414 30.7227 47.5414C29.8563 47.5414 29.4231 47.0582 29.4231 46.0918V43.1637H28.5727V42.4871H29.4231V41.2793L30.2157 41.023V42.4871H31.4618V43.1637H30.2157V45.9516C30.2157 46.2832 30.2719 46.5203 30.3848 46.6621C30.4973 46.8039 30.684 46.8746 30.945 46.8746C31.1446 46.8746 31.3172 46.8199 31.4622 46.7105L31.4618 47.3867ZM35.1008 43.2891C34.9622 43.1828 34.7625 43.1297 34.5016 43.1297C34.1633 43.1297 33.8797 43.2891 33.6512 43.6078C33.4258 43.927 33.3129 44.3617 33.3129 44.9125V47.4348H32.5208V42.4871H33.3129V43.5066H33.3325C33.4454 43.1586 33.6176 42.8883 33.8493 42.6949C34.0809 42.4984 34.3403 42.4 34.6274 42.4C34.8333 42.4 34.9911 42.4227 35.1008 42.468V43.2891ZM39.5036 47.4336H38.711V46.6602H38.6915C38.3473 47.2531 37.8399 47.5496 37.1704 47.5496C36.6774 47.5496 36.2907 47.4191 36.0102 47.1582C35.7332 46.8973 35.595 46.5508 35.595 46.1191C35.595 45.1945 36.1391 44.657 37.2278 44.5059L38.7114 44.2977C38.7114 43.457 38.3715 43.0367 37.6918 43.0367C37.0961 43.0367 36.5583 43.2395 36.0782 43.6453V42.8336C36.5645 42.5246 37.125 42.3699 37.7598 42.3699C38.9227 42.3699 39.504 42.9852 39.504 44.2156L39.5036 47.4336ZM38.7106 44.9309L37.5176 45.0949C37.1504 45.1465 36.8731 45.2383 36.6864 45.3703C36.4997 45.4992 36.4063 45.7297 36.4063 46.0613C36.4063 46.3031 36.4918 46.5012 36.6625 46.6559C36.8364 46.807 37.0668 46.8824 37.3536 46.8824C37.7465 46.8824 38.0704 46.7457 38.3247 46.4723C38.5825 46.1953 38.7114 45.8457 38.7114 45.4234L38.7106 44.9309ZM41.8083 46.7187H41.7887V49.7098H40.9965V42.4859H41.7891V43.3555H41.8083C42.1981 42.6984 42.7684 42.3699 43.5188 42.3699C44.1567 42.3699 44.6543 42.5922 45.0118 43.0367C45.3692 43.4777 45.5481 44.0707 45.5481 44.8148C45.5481 45.6426 45.3469 46.3062 44.9442 46.8055C44.5415 47.3016 43.9907 47.5496 43.2918 47.5496C42.6508 47.5496 42.1563 47.273 41.8083 46.7187ZM41.7887 44.723V45.4145C41.7887 45.8234 41.9208 46.1711 42.1852 46.4578C42.4528 46.7414 42.7907 46.8832 43.1997 46.8832C43.6797 46.8832 44.0551 46.6996 44.3258 46.3324C44.5993 45.9652 44.736 45.4547 44.736 44.8004C44.736 44.2496 44.609 43.818 44.3547 43.5055C44.1004 43.193 43.7555 43.0367 43.3208 43.0367C42.8598 43.0367 42.4895 43.1977 42.2094 43.5199C41.929 43.8391 41.7887 44.2398 41.7887 44.723Z" fill="#F9F5FF"/>
</g>
<defs>
<filter id="filter0_d_62_74" x="13.7247" y="7.15691" width="23.6936" height="28.6834" filterUnits="userSpaceOnUse" color-interpolation-filters="sRGB">
<feFlood flood-opacity="0" result="BackgroundImageFix"/>
<feColorMatrix in="SourceAlpha" type="matrix" values="0 0 0 0 0 0 0 0 0 0 0 0 0 0 0 0 0 0 127 0" result="hardAlpha"/>
<feOffset dy="0.983"/>
<feGaussianBlur stdDeviation="1.965"/>
<feColorMatrix type="matrix" values="0 0 0 0 0 0 0 0 0 0 0 0 0 0 0 0 0 0 0.15 0"/>
<feBlend mode="normal" in2="BackgroundImageFix" result="effect1_dropShadow_62_74"/>
<feBlend mode="normal" in="SourceGraphic" in2="effect1_dropShadow_62_74" result="shape"/>
</filter>
<linearGradient id="paint0_linear_62_74" x1="7.7344" y1="1.83751" x2="50.6672" y2="35.918" gradientUnits="userSpaceOnUse">
<stop stop-color="#9013FE"/>
<stop offset="1" stop-color="#6610F2"/>
</linearGradient>
<linearGradient id="paint1_linear_62_74" x1="19.1531" y1="11.4742" x2="28.7492" y2="27.7039" gradientUnits="userSpaceOnUse">
<stop stop-color="white"/>
<stop offset="1" stop-color="#F1E5FC"/>
</linearGradient>
<clipPath id="clip0_62_74">
<rect width="50" height="50" fill="white"/>
</clipPath>
</defs>
</svg>
