<svg width="50" height="50" viewBox="0 0 50 50" fill="none" xmlns="http://www.w3.org/2000/svg">
<path d="M34.857 2.2875H31.9726L34.9722 5.54258V7.09219H28.7941V5.27774H31.7933L28.7941 2.02266V0.471485H34.857V2.2875ZM27.5691 2.2875H24.6847L27.6844 5.54258V7.09219H21.5058V5.27774H24.5054L21.5058 2.02266V0.471485H27.5691V2.2875ZM20.3527 2.36172H17.2402V5.20195H20.3527V7.09219H15.0277V0.471485H20.3527V2.36172Z" fill="white"/>
<path d="M10.7863 45.5883L7.62341 10.1145H42.3761L39.2105 45.5824L24.9785 49.5285L10.7863 45.5883Z" fill="#1572B6"/>
<path d="M25.0004 46.5125L36.5 43.3242L39.2054 13.0152H25.0004V46.5125Z" fill="#33A9DC"/>
<path d="M25 25.8672H30.757L31.1551 21.4121H25V17.0613H35.9098L35.8055 18.2285L34.7363 30.2176H25V25.8672Z" fill="white"/>
<path d="M25.0261 37.1664L25.007 37.1719L20.1617 35.8633L19.8515 32.3934H15.4847L16.0945 39.2246L25.0062 41.6984L25.0265 41.6926L25.0261 37.1664Z" fill="#EBEBEB"/>
<path d="M30.3875 30.0336L29.8633 35.8602L25.011 37.1699V41.6965L33.9301 39.2246L33.9958 38.4894L34.7528 30.0336H30.3875Z" fill="white"/>
<path d="M25.0153 17.0613V21.4117H14.5063L14.4188 20.434L14.2208 18.2285L14.1165 17.0613H25.0153ZM25 25.8676V30.2184H20.2161L20.129 29.2406L19.9305 27.0348L19.8262 25.8676H25Z" fill="#EBEBEB"/>
</svg>
