<svg width="50" height="50" viewBox="0 0 50 50" fill="none" xmlns="http://www.w3.org/2000/svg">
<path d="M10.8804 45.4508L7.73865 10.2121H42.2613L39.1164 45.4453L24.9789 49.3645L10.8804 45.4508Z" fill="#E44D26"/>
<path d="M25 46.3688L36.4234 43.2016L39.1113 13.0938H25V46.3688Z" fill="#F16529"/>
<path d="M25 26.1633H19.2808L18.8863 21.7371H25V17.4152H14.1628L14.266 18.575L15.3285 30.4848H25V26.1633ZM25 37.3871L24.9808 37.3922L20.1679 36.0922L19.8601 32.6457H15.5214L16.1269 39.4316L24.98 41.8895L25 41.8836V37.3871Z" fill="#EBEBEB"/>
<path d="M10.9508 0.635548H13.1469V2.80586H15.1563V0.635548H17.3528V7.20664H15.1563V5.00625H13.1473V7.20664H10.9508V0.635548ZM20.2406 2.81484H18.3071V0.635548H24.3715V2.81484H22.4371V7.20664H20.2406V2.81484ZM25.334 0.635548H27.6239L29.0328 2.94453L30.4403 0.635548H32.7313V7.20664H30.5434V3.94961L29.0328 6.28594H28.9946L27.4828 3.94961V7.20664H25.3336V0.635548H25.334ZM33.8246 0.635548H36.0215V5.03477H39.1102V7.20703H33.8246V0.635548Z" fill="#F6EBEB"/>
<path d="M24.9851 26.1633V30.4848H30.307L29.8054 36.0898L24.9851 37.391V41.8871L33.8453 39.4316L33.9101 38.7012L34.9257 27.3234L35.0312 26.1633H33.8664H24.9851ZM24.9851 17.4152V21.7371H35.4246L35.5109 20.7656L35.7082 18.575L35.8117 17.4152H24.9851Z" fill="white"/>
</svg>
