<svg width="50" height="50" viewBox="0 0 50 50" fill="none" xmlns="http://www.w3.org/2000/svg">
<path d="M38.2812 0H11.7188C5.24666 0 0 5.24666 0 11.7188V38.2812C0 44.7533 5.24666 50 11.7188 50H38.2812C44.7533 50 50 44.7533 50 38.2812V11.7188C50 5.24666 44.7533 0 38.2812 0Z" fill="#F0DB4F"/>
<path d="M13.1469 41.7836L16.9731 39.468C17.7114 40.7768 18.3829 41.8842 19.9936 41.8842C21.5375 41.8842 22.511 41.2803 22.511 38.931V22.9549H27.2098V38.9975C27.2098 43.8641 24.3571 46.0793 20.195 46.0793C16.4362 46.0793 14.2543 44.1326 13.1467 41.7832M29.762 41.2801L33.5877 39.065C34.595 40.7098 35.904 41.918 38.2196 41.918C40.1667 41.918 41.4081 40.9445 41.4081 39.6019C41.4081 37.991 40.1327 37.4203 37.9846 36.4809L36.8102 35.9771C33.4202 34.5342 31.1713 32.7217 31.1713 28.8955C31.1713 25.3713 33.8565 22.6861 38.052 22.6861C41.0391 22.6861 43.1872 23.7268 44.7309 26.4453L41.0725 28.7947C40.2668 27.3516 39.3946 26.781 38.052 26.781C36.6758 26.781 35.8032 27.6537 35.8032 28.7947C35.8032 30.2043 36.6758 30.775 38.6895 31.6478L39.8641 32.1512C43.8581 33.8631 46.1069 35.608 46.1069 39.5348C46.1069 43.7641 42.7842 46.0797 38.3204 46.0797C33.9573 46.0797 31.1379 43.9988 29.762 41.2801Z" fill="#323330"/>
</svg>
