<svg width="30" height="30" viewBox="0 0 30 30" fill="none" xmlns="http://www.w3.org/2000/svg">
<path d="M8.17951 6.25051C8.07937 6.14833 7.96007 6.06689 7.82844 6.01084C7.69681 5.95478 7.55543 5.92521 7.41237 5.92382C7.26931 5.92243 7.12737 5.94924 6.99468 6.00272C6.86198 6.0562 6.74112 6.1353 6.63901 6.23551C5.48393 7.38388 4.56768 8.7496 3.9431 10.2539C3.31853 11.7582 2.998 13.3712 3.00001 15C2.99814 16.6913 3.34389 18.3649 4.01581 19.917C4.68774 21.4691 5.67149 22.8665 6.90601 24.0225C7.11379 24.2146 7.38825 24.3181 7.67112 24.3111C7.95399 24.3041 8.22299 24.1871 8.42101 23.985C8.89501 23.511 8.83651 22.7565 8.38051 22.32C7.38976 21.3758 6.60134 20.24 6.06319 18.9816C5.52503 17.7233 5.24836 16.3686 5.25001 15C5.25001 12.231 6.36151 9.72001 8.16451 7.89301C8.59951 7.45051 8.64451 6.71551 8.17951 6.25051ZM10.821 8.89501C10.6235 8.69174 10.3534 8.57508 10.07 8.57058C9.78655 8.56608 9.51291 8.67411 9.30901 8.87101C8.49743 9.67194 7.85324 10.6263 7.41392 11.6785C6.9746 12.7307 6.74892 13.8598 6.75001 15C6.75001 17.538 7.84501 19.8195 9.58951 21.3975C9.79557 21.5792 10.0636 21.6746 10.3382 21.664C10.6127 21.6534 10.8726 21.5376 11.064 21.3405C11.556 20.8485 11.4645 20.0745 11.0025 19.6395C10.3692 19.0442 9.86477 18.3253 9.52034 17.5273C9.1759 16.7293 8.99881 15.8692 9.00001 15C9.00001 13.275 9.68551 11.709 10.8 10.56C11.229 10.119 11.2995 9.37201 10.821 8.89501ZM19.179 8.89351C19.3766 8.69024 19.6466 8.57358 19.93 8.56908C20.2135 8.56458 20.4871 8.67261 20.691 8.86951C21.5028 9.67062 22.1471 10.6252 22.5864 11.6777C23.0257 12.7302 23.2513 13.8595 23.25 15C23.25 17.538 22.155 19.8195 20.4105 21.3975C20.2045 21.5792 19.9364 21.6746 19.6619 21.664C19.3873 21.6534 19.1274 21.5376 18.936 21.3405C18.444 20.8485 18.5355 20.0745 18.9975 19.6395C19.6308 19.0442 20.1353 18.3253 20.4797 17.5273C20.8241 16.7293 21.0012 15.8692 21 15C21 13.275 20.3145 11.709 19.2 10.56C18.771 10.119 18.7005 9.37051 19.179 8.89351ZM21.8205 6.25051C21.9207 6.14833 22.0399 6.06689 22.1716 6.01084C22.3032 5.95478 22.4446 5.92521 22.5877 5.92382C22.7307 5.92243 22.8726 5.94924 23.0053 6.00272C23.138 6.0562 23.2589 6.1353 23.361 6.23551C24.5161 7.38388 25.4323 8.7496 26.0569 10.2539C26.6815 11.7582 27.002 13.3712 27 15C27.0019 16.6913 26.6561 18.3649 25.9842 19.917C25.3123 21.4691 24.3285 22.8665 23.094 24.0225C22.8862 24.2146 22.6118 24.3181 22.3289 24.3111C22.046 24.3041 21.777 24.1871 21.579 23.985C21.105 23.511 21.1635 22.7565 21.621 22.32C22.6115 21.3757 23.3996 20.2398 23.9375 18.9815C24.4754 17.7231 24.7518 16.3685 24.75 15C24.75 12.231 23.6385 9.72001 21.8355 7.89301C21.4005 7.45051 21.3555 6.71551 21.8205 6.25051ZM15 12.75C14.4033 12.75 13.831 12.9871 13.409 13.409C12.9871 13.831 12.75 14.4033 12.75 15C12.75 15.5968 12.9871 16.169 13.409 16.591C13.831 17.013 14.4033 17.25 15 17.25C15.5967 17.25 16.169 17.013 16.591 16.591C17.013 16.169 17.25 15.5968 17.25 15C17.25 14.4033 17.013 13.831 16.591 13.409C16.169 12.9871 15.5967 12.75 15 12.75Z" fill="#FEFBFB"/>
</svg>
