<svg width="50" height="35" viewBox="0 0 50 35" fill="none" xmlns="http://www.w3.org/2000/svg">
<g clip-path="url(#clip0_62_90)">
<path d="M14.874 22.4899L16.3936 27.4203C16.735 28.5397 16.8773 29.3212 16.8203 29.7666C17.6514 27.5408 18.232 25.1152 18.5624 22.4899H20.3896C19.6039 26.764 18.5677 29.8698 17.2814 31.8073C16.2793 33.3004 15.1814 34.0469 13.9859 34.0469C13.6672 34.0469 13.2742 33.9506 12.8079 33.7594V32.7291C13.0357 32.7625 13.303 32.7804 13.6104 32.7804C14.1682 32.7804 14.6177 32.6258 14.9597 32.3173C15.3691 31.9414 15.5741 31.5189 15.5741 31.0507C15.5741 30.731 15.4143 30.0748 15.096 29.0822L12.9788 22.4899H14.874ZM3.24443 19.4596L6.02764 27.9514H6.04482L8.84512 19.4596H11.133C11.634 23.6709 11.9299 27.5241 12.0207 31.0168H10.0918C10.0239 27.7518 9.83594 24.6817 9.52852 21.8059H9.51172L6.57441 31.0168H5.10547L2.18594 21.8059H2.16875C1.95215 24.5678 1.81582 27.6379 1.75898 31.0168H0C0.113672 26.9074 0.398145 23.0554 0.853418 19.4596H3.24443Z" fill="#00758F"/>
<path d="M34.4237 19.2881C37.4175 19.2881 38.9145 21.2008 38.9145 25.0243C38.9145 27.1021 38.4643 28.6715 37.5648 29.7317C37.4027 29.9255 37.2235 30.0929 37.0348 30.248L39.1534 31.2955L39.1514 31.2954L38.3991 32.5944L35.6401 30.9846C35.1827 31.12 34.6795 31.1877 34.1312 31.1877C32.6612 31.1877 31.5631 30.7593 30.8371 29.9035C30.0403 28.9568 29.642 27.4665 29.642 25.4351C29.642 23.369 30.0914 21.8056 30.9912 20.744C31.8108 19.7729 32.9551 19.2881 34.4237 19.2881ZM25.2557 19.3048C26.3257 19.3048 27.2987 19.5911 28.175 20.1617L27.7299 21.1536C26.98 20.8349 26.2407 20.6748 25.5115 20.6748C24.9199 20.6748 24.4641 20.8172 24.1463 21.1037C23.8268 21.3877 23.6291 21.7531 23.6291 22.1986C23.6291 22.8832 24.1168 23.4769 25.0173 23.9784C25.3123 24.1397 25.6063 24.3028 25.8992 24.4678L25.9664 24.5056L26.0001 24.5245L26.0674 24.5623L26.101 24.5813L26.1682 24.6191C26.8498 25.0034 27.4912 25.3702 27.4912 25.3702C28.3916 26.0094 28.8405 26.6908 28.8405 27.8132C28.8405 28.7934 28.4813 29.598 27.7653 30.2275C27.0488 30.8543 26.0862 31.1686 24.8807 31.1686C23.7532 31.1686 22.6606 30.8068 21.6022 30.0895L22.0973 29.0967C23.0081 29.5532 23.8323 29.7813 24.5725 29.7813C25.2666 29.7813 25.81 29.6263 26.2031 29.3202C26.5953 29.0119 26.8304 28.5819 26.8304 28.0367C26.8304 27.3505 26.3531 26.7639 25.4774 26.2718C25.2033 26.1204 24.93 25.9675 24.6575 25.8131L24.5905 25.7751C24.4672 25.7055 24.3431 25.635 24.2215 25.5659L24.1556 25.5284C23.5643 25.1921 23.0531 24.8982 23.0531 24.8982C22.1777 24.2579 21.7387 23.5709 21.7387 22.4389C21.7387 21.5026 22.066 20.7459 22.7198 20.1702C23.375 19.5933 24.2204 19.3048 25.2557 19.3048ZM42.4329 19.4595V29.595H46.0695V31.0167H40.5886V19.4596L42.4329 19.4595ZM48.0902 29.5994V29.8397H47.6904V31.0154H47.3847V29.8397H46.9694V29.5994H48.0902ZM48.8284 29.5994L49.2123 30.5647L49.565 29.5994H49.9983V31.0154H49.7102V29.9378L49.3088 31.0154H49.1011L48.699 29.9378H48.6836V31.0154H48.4111V29.5994H48.8284ZM34.2354 20.7094C32.4711 20.7094 31.5885 22.1654 31.5885 25.0756C31.5885 26.7426 31.8224 27.9514 32.2893 28.7048C32.7217 29.4021 33.399 29.75 34.3211 29.75C36.0854 29.75 36.9679 28.2826 36.9679 25.3492C36.9679 23.7056 36.734 22.5071 36.2677 21.7533C35.8348 21.0576 35.1578 20.7094 34.2355 20.7094" fill="#F29111"/>
<path d="M29.6111 0.71612C30.1964 -0.721966 32.2427 0.367097 33.0369 0.86944C33.2315 0.995124 33.4548 1.26065 33.6779 1.3588C34.026 1.37247 34.3739 1.39971 34.7226 1.41426C35.3767 1.56798 35.9894 1.69356 36.5049 1.98712C38.9002 3.39776 40.4594 4.83526 41.8945 7.20968C42.2011 7.7126 42.3544 8.25684 42.6048 8.80108C42.9525 9.61231 43.3431 10.4639 43.7466 11.231C43.9273 11.5946 44.0671 11.999 44.3179 12.3062C44.4159 12.4466 44.6941 12.488 44.8604 12.5719C45.3202 12.8099 45.8772 12.9905 46.3096 13.2698C47.1172 13.7733 47.8979 14.3733 48.6077 14.9876C48.8722 15.2247 49.0525 15.5604 49.3046 15.8111V15.9377C49.0808 16.0064 48.8579 16.0767 48.6347 16.133C48.1473 16.2582 47.7156 16.2299 47.2427 16.3552C46.9506 16.4399 46.5878 16.5518 46.2813 16.5802L46.3096 16.6087C46.4899 17.1238 47.4653 17.5428 47.9114 17.8509C48.4532 18.2419 48.9552 18.7161 49.3593 19.2607C49.4989 19.3997 49.6384 19.5262 49.7773 19.6648C49.8744 19.8052 49.9017 19.9868 50 20.112V20.1544C49.8912 20.116 49.813 20.0428 49.7388 19.9662L49.6946 19.92C49.6504 19.8741 49.6057 19.829 49.5548 19.7918C49.2474 19.5818 48.9422 19.3307 48.6347 19.1355C48.1062 18.8001 47.4932 18.6055 46.9506 18.2689C46.6437 18.0734 46.3512 17.8509 46.0588 17.6273C45.7936 17.4313 45.5016 17.0549 45.335 16.7756C45.2369 16.6213 45.2234 16.4399 45.1113 16.3283C45.1313 16.1419 45.3021 16.0865 45.4745 16.041L45.5141 16.0306C45.5736 16.0151 45.6318 15.9997 45.6826 15.9793C46.4066 15.6719 47.2698 15.5604 48.3844 15.5883C48.3424 15.3084 47.646 14.9597 47.4236 14.7921C46.9773 14.4704 46.5048 14.1348 46.0313 13.842C45.7804 13.6887 45.3481 13.5768 45.0702 13.4515C44.6941 13.2978 43.8583 13.1441 43.6499 12.8514C43.2959 12.3899 43.0416 11.8394 42.7947 11.2833L42.7275 11.1315C42.7051 11.081 42.6826 11.0304 42.6601 10.9799C42.3683 10.3103 42.0058 9.61212 41.7133 8.92647C41.5604 8.592 41.4902 8.29844 41.3227 7.97764C40.3064 6.00909 38.8022 4.36094 36.9785 3.20186C36.3792 2.82471 35.7109 2.47569 34.9732 2.23848C34.5551 2.11221 34.0534 2.18204 33.608 2.08516H33.3148C33.0646 2.01466 32.8557 1.74942 32.6605 1.60958C32.2294 1.3168 31.7975 1.12022 31.2819 0.911335C31.1012 0.827546 30.5853 0.632429 30.4052 0.786042C30.2937 0.814069 30.2372 0.856159 30.2097 0.968073C30.0988 1.13507 30.1964 1.38663 30.2654 1.54063C30.4746 1.98692 30.7668 2.25216 31.032 2.6293C31.2679 2.96378 31.561 3.34092 31.7283 3.7046C32.0892 4.48633 32.2573 5.35245 32.5918 6.13409C32.7158 6.42803 32.912 6.76251 33.0925 7.02764C33.2456 7.23809 33.5238 7.39024 33.608 7.65665C33.7757 7.93594 33.3568 8.85753 33.2598 9.1502C32.897 10.2954 32.9674 11.8873 33.3851 12.88L33.4074 12.9323L33.4297 12.9854C33.5822 13.3489 33.7455 13.7404 34.151 13.8421C34.179 13.8144 34.151 13.8289 34.2064 13.8144C34.3046 13.046 34.3322 12.3061 34.597 11.7049C34.7501 11.329 35.0556 11.0633 35.2651 10.7565C35.4048 10.84 35.4048 11.0921 35.488 11.2589C35.6692 11.6915 35.8638 12.1658 36.0873 12.5997C36.5459 13.4933 37.0619 14.3596 37.6466 15.1412C37.8424 15.4204 38.1202 15.7277 38.3708 15.9792C38.4824 16.0766 38.6074 16.1328 38.6913 16.2581H38.7186V16.3003C38.3008 16.1463 38.036 15.7141 37.7028 15.4617C37.0755 14.9874 36.3242 14.2751 35.8918 13.5916C35.7109 13.1992 35.5154 12.8232 35.3205 12.4327V12.4045C35.2372 12.516 35.2651 12.6268 35.2234 12.7955C35.0425 13.4933 35.1818 14.2893 34.5551 14.5402C33.8448 14.8342 33.3149 14.0659 33.0925 13.7168C32.382 12.558 32.1874 10.6031 32.6884 9.0251C32.7998 8.67579 32.8149 8.25684 33.0092 7.97794C32.9673 7.72579 32.7729 7.65684 32.6605 7.50235C32.4656 7.23829 32.2987 6.93067 32.1461 6.63741C31.8529 6.06456 31.6443 5.38008 31.4217 4.76573C31.3239 4.51485 31.2959 4.263 31.1983 4.0255C31.0319 3.663 30.7252 3.29932 30.4885 2.97862C30.1681 2.51768 29.2349 1.62432 29.6111 0.71612ZM34.1787 3.45196C34.2159 3.48926 34.2608 3.52188 34.3073 3.55401L34.3633 3.59249C34.4381 3.64424 34.5104 3.69874 34.5548 3.77296C34.6251 3.8712 34.6382 3.96817 34.7223 4.06661C34.7223 4.40225 34.6251 4.6254 34.4287 4.76446C34.4287 4.76446 34.4153 4.77911 34.4015 4.79278C34.2902 4.56905 34.1926 4.34649 34.0805 4.12296C33.9424 3.92784 33.7472 3.77305 33.6347 3.5501H33.6077V3.52208C33.7757 3.48057 33.9424 3.45196 34.1787 3.45196Z" fill="#00758F"/>
</g>
<defs>
<clipPath id="clip0_62_90">
<rect width="50" height="34.082" fill="white"/>
</clipPath>
</defs>
</svg>
