<svg width="50" height="50" viewBox="0 0 50 50" fill="none" xmlns="http://www.w3.org/2000/svg">
<path fill-rule="evenodd" clip-rule="evenodd" d="M20.2477 8.99101C21.7149 8.99101 23.1821 9.01367 24.6473 8.97539C25.036 8.96523 25.7332 9.28671 25.702 8.4789C25.6781 7.82148 25.0684 8.05937 24.6989 8.05351C23.0438 8.02734 21.3832 7.96445 19.7348 8.06796C18.5617 8.14101 18.216 7.6957 18.3633 6.61992C18.4141 6.24882 18.3653 5.86445 18.3731 5.48632C18.4246 2.96835 19.0332 2.11132 21.4754 1.49023C24.166 0.806636 26.9196 0.829292 29.6028 1.41835C32.0149 1.94804 33.0168 3.8246 32.8949 5.56054C32.7465 7.6789 32.8614 9.81562 32.8594 11.9445C32.8559 14.6215 31.4727 16.0422 28.7739 16.0793C26.5512 16.1098 24.3258 16.134 22.1043 16.0723C19.4567 15.998 17.5145 18.1973 17.5012 20.6894C17.5012 20.8785 17.5336 21.0738 17.4961 21.2562C17.3055 22.1715 18.0672 23.6508 17.0969 23.9227C15.6203 24.3375 13.8914 24.3375 12.5891 23.0199C12.1477 22.5746 11.7758 22.0758 11.5797 21.4992C10.5332 18.4269 10.368 15.3156 11.3531 12.1953C11.9672 10.2477 13.6375 9.03632 15.7067 9.00156C17.2199 8.97617 18.7336 8.99648 20.2469 8.99648L20.2477 8.99101ZM22.9438 4.64726C22.8805 3.9039 22.4809 3.36132 21.6563 3.33867C20.7543 3.31523 20.2883 3.86054 20.2871 4.74804C20.2864 5.5707 20.7344 6.09765 21.5531 6.12148C22.4528 6.14765 22.8883 5.59023 22.9438 4.64726Z" fill="#386F9F"/>
<path fill-rule="evenodd" clip-rule="evenodd" d="M31.5719 24.0516C29.9156 24.0516 28.2586 24.0371 26.6024 24.0633C26.2293 24.068 25.6035 23.832 25.584 24.4699C25.5621 25.1934 26.2336 25.0051 26.6602 25.0094C28.3164 25.0301 29.9742 25.0476 31.6301 25.0016C32.4809 24.9781 32.8281 25.141 32.8918 26.1441C33.1797 30.6851 31.209 31.0777 27.5742 31.9039C25.4891 32.3777 23.2535 32.1266 21.1973 31.2055C19.4969 30.4449 18.4535 29.3488 18.5852 27.2965C18.7156 25.2707 18.7375 23.2187 18.5817 21.1949C18.3942 18.7523 19.9137 16.9559 22.8688 16.9551C24.857 16.9547 26.8586 16.8031 28.8297 16.9844C31.6481 17.243 33.8578 14.8 33.9547 11.9594C33.9586 11.8652 33.9344 11.7641 33.9586 11.6766C34.207 10.8035 33.3234 9.50585 34.5055 9.06484C36.2918 8.39882 38.3063 9.09882 39.2188 10.4543C40.3692 12.1609 40.5246 14.1691 40.7106 16.1301C40.9117 18.2437 40.3188 20.2336 39.4309 22.1402C38.8277 23.4332 37.8137 24.0582 36.4008 24.0602C34.7914 24.0613 33.1824 24.0602 31.5727 24.0602C31.5719 24.057 31.5719 24.0543 31.5719 24.0516ZM31.1406 28.2703C30.9637 27.4633 30.5996 26.9125 29.6621 26.8894C28.6871 26.866 28.4356 27.5953 28.4406 28.2465C28.4461 28.9387 28.6391 29.7902 29.6945 29.7105C30.5719 29.6434 30.9996 29.1 31.1406 28.2703Z" fill="#FFCF46"/>
<path fill-rule="evenodd" clip-rule="evenodd" d="M5.51913 44.8629C5.51913 45.8715 5.56484 46.816 5.49765 47.7523C5.46874 48.1563 5.91405 48.9164 5.06679 48.9156C4.31991 48.9156 4.12812 48.3211 4.15195 47.6027C4.19765 46.2316 4.16523 44.8578 4.16523 43.4855V40.3613C4.16523 38.4785 4.6703 37.841 6.47109 37.4512C8.1453 37.0871 9.46093 37.6508 10.1375 39.1164C10.8141 40.5824 10.8664 42.093 10.1894 43.5844C9.52226 45.0539 8.29335 45.6023 6.71913 45.1668C6.36054 45.0691 5.99843 44.9844 5.51913 44.8629ZM5.51913 41.1723C5.51913 41.6918 5.58945 42.2215 5.50468 42.727C5.30859 43.8953 6.05468 44.1832 6.93437 44.391C7.80429 44.5965 8.40077 44.2266 8.7496 43.4602C9.33593 42.175 9.43437 40.8496 8.98905 39.4906C8.59374 38.2828 7.68085 38.1414 6.61523 38.2914C5.56288 38.441 5.4203 39.1566 5.5121 40.0414C5.55116 40.4145 5.51913 40.7953 5.51913 41.1723ZM16.8422 44.8004C16.1215 44.9879 15.4957 45.1879 14.8551 45.3082C13.4527 45.5703 12.4144 44.8004 12.0492 43.3965C11.5961 41.659 11.9797 39.9281 11.9914 38.1945C11.9965 37.4043 12.7277 37.7125 13.2336 37.2891C13.2336 39.1445 13.2406 40.7461 13.2312 42.3465C13.2262 43.1504 13.434 43.8113 14.1941 44.2352C15.0332 44.7031 15.7215 44.2574 16.4519 43.957C16.9754 43.7418 16.9101 43.3023 16.9109 42.8844C16.9148 41.3719 16.9105 39.8609 16.9156 38.3484C16.9164 37.9754 16.8777 37.5195 17.4285 37.5379C17.9195 37.5539 18.1332 37.8457 18.125 38.3809C18.0894 40.8836 18.1601 43.3898 18.0586 45.8891C17.9816 47.7789 16.6484 48.9332 14.7305 49.018C14.4434 49.0301 14.1426 49.0566 14.0351 48.7004C13.8715 48.152 14.3156 48.2555 14.6074 48.1621C16.7172 47.491 16.993 47.0902 16.8422 44.8004ZM25.7578 38.3063C26.316 38.0426 26.6367 37.8012 26.9894 37.7359C28.9687 37.3699 30.4855 37.5094 30.4816 40.1754C30.4789 41.5484 30.4824 42.9219 30.4789 44.2945C30.4781 44.6789 30.5027 45.0531 29.9297 45.0863C29.3254 45.1223 29.1926 44.7766 29.1953 44.3027C29.2023 42.9797 29.2383 41.6566 29.2371 40.334C29.2363 39.3066 29.0266 38.3973 27.7199 38.4004C26.5738 38.4023 25.7621 39.2578 25.7562 40.4383C25.7497 41.7161 25.7501 42.994 25.7574 44.2719C25.7586 44.7258 25.7684 45.1238 25.1121 45.0863C24.5211 45.0512 24.5937 44.6527 24.5937 44.2859C24.5898 40.9266 24.6062 37.5637 24.5777 34.202C24.5726 33.6129 24.8051 33.2473 25.3277 33.2223C26.0652 33.1883 25.7273 33.8332 25.7383 34.1566C25.7863 35.4734 25.7578 36.7934 25.7578 38.3063ZM32.0039 41.3184C31.9293 38.6953 33.1734 37.2949 35.4258 37.3762C36.5562 37.4176 37.4043 37.9191 37.9516 38.8957C38.9184 40.623 38.7875 42.3512 37.7414 43.9688C37.0226 45.0797 35.9172 45.6035 34.5695 45.3176C33.2406 45.0363 32.2 43.8398 32.0117 42.4453C31.9617 42.0762 32.0039 41.6938 32.0039 41.3184ZM37.207 41.3797C37.1476 40.9219 37.1582 40.2836 36.9676 39.7141C36.707 38.9328 36.232 38.3039 35.2629 38.2609C34.2851 38.2188 33.7973 38.7902 33.4711 39.5813C32.959 40.8231 32.9922 42.0699 33.5469 43.2895C33.9031 44.075 34.4531 44.65 35.4062 44.4906C36.3449 44.334 36.8988 43.7188 37.0906 42.8059C37.1777 42.3922 37.1637 41.9586 37.207 41.3797ZM39.9441 41.7293C39.9441 41.2559 39.9351 40.7832 39.9457 40.3121C39.9676 39.4039 39.6781 38.3977 40.9027 37.9336C42.3051 37.4039 43.6949 37.007 45.1066 37.827C45.6348 38.134 45.8293 38.6918 45.8348 39.284C45.8492 40.9367 45.8273 42.5902 45.8496 44.243C45.8574 44.8195 45.7059 45.1078 45.0578 45.0922C44.3476 45.0754 44.4973 44.591 44.5019 44.2043C44.5187 42.884 44.6105 41.5648 44.5855 40.2465C44.5527 38.5863 43.6418 37.9094 42.0898 38.3168C41.4461 38.4863 41.0437 38.7988 41.0754 39.5957C41.1383 41.1512 41.0898 42.7121 41.0957 44.2703C41.0973 44.7219 41.1039 45.1219 40.4523 45.084C39.8555 45.0496 39.9531 44.6367 39.9484 44.2785C39.9375 43.4285 39.9453 42.5781 39.9441 41.7293ZM22.9254 38.048C22.8277 38.1637 22.7457 38.3449 22.6598 38.3465C21.1113 38.368 21.541 39.5238 21.5012 40.3813C21.4633 41.1801 21.5012 41.9828 21.4898 42.784C21.4781 43.5801 21.5473 44.3199 22.516 44.5313C22.7937 44.5914 22.9203 44.7516 22.8625 45.0289C22.7988 45.3352 22.5547 45.323 22.3129 45.3199C21.1996 45.3004 20.3742 44.5133 20.3414 43.3609C20.3078 42.1836 20.3535 41.0035 20.3258 39.8273C20.3113 39.2688 20.6016 38.5559 19.7008 38.3344C19.6019 38.3106 19.5668 38.0305 19.5023 37.8707C20.7039 37.4938 20.2055 36.4574 20.3703 35.6711C20.4484 35.2988 20.8019 35.1969 21.1359 35.1652C21.4738 35.1332 21.4766 35.4066 21.4875 35.6352C21.532 36.5414 21.0629 37.7543 22.7312 37.6883C22.7871 37.6863 22.8523 37.9082 22.9254 38.048Z" fill="#386F9F"/>
</svg>
