<svg width="50" height="50" viewBox="0 0 50 50" fill="none" xmlns="http://www.w3.org/2000/svg">
<g clip-path="url(#clip0_62_98)">
<path d="M38.2812 0H11.7188C5.24666 0 0 5.24666 0 11.7188V38.2812C0 44.7533 5.24666 50 11.7188 50H38.2812C44.7533 50 50 44.7533 50 38.2812V11.7188C50 5.24666 44.7533 0 38.2812 0Z" fill="#007ACC"/>
<path d="M11.0568 25.1658L11.041 27.2135H17.5488V45.7055H22.1523V27.2135H28.6602V25.2055C28.6602 24.0943 28.6365 23.1658 28.6047 23.142C28.5809 23.1103 24.6205 23.0943 19.8189 23.1023L11.0809 23.1262L11.0568 25.1658ZM40.3451 23.068C41.6148 23.3855 42.5832 23.949 43.4721 24.8695C43.9324 25.3617 44.6148 26.2586 44.6705 26.4728C44.6863 26.5363 42.5117 27.9967 41.1943 28.8141C41.1467 28.8459 40.9561 28.6394 40.7418 28.3221C40.099 27.3855 39.4244 26.9807 38.3926 26.9094C36.8768 26.806 35.9006 27.5998 35.9086 28.9252C35.9086 29.3141 35.9641 29.5441 36.1229 29.8617C36.4561 30.5521 37.0752 30.9648 39.0197 31.806C42.599 33.3459 44.1307 34.3617 45.0832 35.806C46.1467 37.4172 46.3848 39.9887 45.6625 41.9014C44.8689 43.9807 42.9006 45.3933 40.1307 45.8617C39.2736 46.0125 37.2418 45.9887 36.3213 45.8221C34.3133 45.4648 32.4086 44.4728 31.234 43.1713C30.7736 42.6633 29.8768 41.3379 29.9324 41.2426C29.9561 41.2109 30.1625 41.084 30.3926 40.949C30.6148 40.8221 31.4562 40.3379 32.2498 39.8775L33.6863 39.0441L33.9879 39.4887C34.4086 40.1314 35.3291 41.0125 35.8848 41.306C37.4799 42.1475 39.6705 42.0283 40.7498 41.0601C41.2102 40.6394 41.4006 40.2029 41.4006 39.5601C41.4006 38.9807 41.3291 38.7267 41.0275 38.2902C40.6387 37.7348 39.8451 37.2664 37.591 36.2902C35.0117 35.1791 33.9006 34.4887 32.8848 33.3934C32.2975 32.7586 31.7418 31.7426 31.5117 30.8934C31.3213 30.1871 31.2736 28.4172 31.4244 27.7029C31.9561 25.2109 33.8371 23.4728 36.5514 22.9568C37.4324 22.7902 39.4799 22.8537 40.3451 23.068Z" fill="white"/>
</g>
<defs>
<clipPath id="clip0_62_98">
<rect width="50" height="50" fill="white"/>
</clipPath>
</defs>
</svg>
